# Blender 4.1.1
# www.blender.org
mtllib sub-body.mtl
o pinnaDx
v 0.750000 -0.056552 -0.979134
v 0.750000 0.056552 -0.979134
v 0.750000 -0.056552 -1.477769
v 0.750000 0.056552 -1.477769
v 1.250000 -0.056552 -0.979134
v 1.250000 0.056552 -0.979134
v 1.250000 -0.056552 -1.477769
v 1.250000 0.056552 -1.477769
vn -0.6091 -0.6091 0.5080
vn -0.6091 0.6091 0.5080
vn -0.6091 0.6091 -0.5080
vn -0.6091 -0.6091 -0.5080
vn 0.6091 0.6091 -0.5080
vn 0.6091 -0.6091 -0.5080
vn 0.6091 0.6091 0.5080
vn 0.6091 -0.6091 0.5080
vt 0.375000 0.000000
vt 0.625000 0.000000
vt 0.625000 0.250000
vt 0.375000 0.250000
vt 0.625000 0.500000
vt 0.375000 0.500000
vt 0.625000 0.750000
vt 0.375000 0.750000
vt 0.625000 1.000000
vt 0.375000 1.000000
vt 0.125000 0.500000
vt 0.125000 0.750000
vt 0.875000 0.500000
vt 0.875000 0.750000
s 1
usemtl Material.003
f 1/1/1 2/2/2 4/3/3 3/4/4
f 3/4/4 4/3/3 8/5/5 7/6/6
f 7/6/6 8/5/5 6/7/7 5/8/8
f 5/8/8 6/7/7 2/9/2 1/10/1
f 3/11/4 7/6/6 5/8/8 1/12/1
f 8/5/5 4/13/3 2/14/2 6/7/7
o pinnaSopra
v 0.448463 0.942485 0.215363
v 0.448463 1.231540 0.215363
v -0.038498 0.942485 0.215241
v -0.038498 1.231540 0.215241
v 0.448572 0.942485 -0.215241
v 0.448572 1.231540 -0.215241
v -0.038390 0.942485 -0.215363
v -0.038390 1.231540 -0.215363
vn 0.5772 -0.5774 0.5775
vn 0.5772 0.5774 0.5775
vn -0.5775 0.5774 0.5772
vn -0.5775 -0.5774 0.5772
vn -0.5772 0.5774 -0.5775
vn -0.5772 -0.5774 -0.5775
vn 0.5775 0.5774 -0.5772
vn 0.5775 -0.5774 -0.5772
vt 0.375000 0.000000
vt 0.625000 0.000000
vt 0.625000 0.250000
vt 0.375000 0.250000
vt 0.625000 0.500000
vt 0.375000 0.500000
vt 0.625000 0.750000
vt 0.375000 0.750000
vt 0.625000 1.000000
vt 0.375000 1.000000
vt 0.125000 0.500000
vt 0.125000 0.750000
vt 0.875000 0.500000
vt 0.875000 0.750000
s 1
usemtl Material.004
f 9/15/9 10/16/10 12/17/11 11/18/12
f 11/18/12 12/17/11 16/19/13 15/20/14
f 15/20/14 16/19/13 14/21/15 13/22/16
f 13/22/16 14/21/15 10/23/10 9/24/9
f 11/25/12 15/20/14 13/22/16 9/26/9
f 16/19/13 12/27/11 10/28/10 14/21/15
o pinnaSotto
v 0.436160 -1.268806 -0.048795
v 0.436160 -1.268806 0.064309
v 0.436160 -0.977343 -0.048795
v 0.436160 -0.977343 0.064309
v 0.936160 -1.268806 -0.048795
v 0.936160 -1.268806 0.064309
v 0.936160 -0.977343 -0.048795
v 0.936160 -0.977343 0.064309
vn -1.0000 -0.0000 -0.0000
vn -0.0000 1.0000 -0.0000
vn 1.0000 -0.0000 -0.0000
vn -0.0000 -1.0000 -0.0000
vn -0.0000 -0.0000 -1.0000
vn -0.0000 -0.0000 1.0000
vt 0.375000 0.000000
vt 0.625000 0.000000
vt 0.625000 0.250000
vt 0.375000 0.250000
vt 0.625000 0.500000
vt 0.375000 0.500000
vt 0.625000 0.750000
vt 0.375000 0.750000
vt 0.625000 1.000000
vt 0.375000 1.000000
vt 0.125000 0.500000
vt 0.125000 0.750000
vt 0.875000 0.500000
vt 0.875000 0.750000
s 0
usemtl Material.005
f 17/29/17 18/30/17 20/31/17 19/32/17
f 19/32/18 20/31/18 24/33/18 23/34/18
f 23/34/19 24/33/19 22/35/19 21/36/19
f 21/36/20 22/35/20 18/37/20 17/38/20
f 19/39/21 23/34/21 21/36/21 17/40/21
f 24/33/22 20/41/22 18/42/22 22/35/22
o pinnaSx
v 0.750000 -0.056552 1.477389
v 0.750000 0.056552 1.477389
v 0.750000 -0.056552 0.985481
v 0.750000 0.056552 0.985481
v 1.250000 -0.056552 1.477389
v 1.250000 0.056552 1.477389
v 1.250000 -0.056552 0.985481
v 1.250000 0.056552 0.985481
vn -0.6069 -0.6069 0.5131
vn -0.6069 0.6069 0.5131
vn -0.6069 0.6069 -0.5131
vn -0.6069 -0.6069 -0.5131
vn 0.6069 0.6069 -0.5131
vn 0.6069 -0.6069 -0.5131
vn 0.6069 0.6069 0.5131
vn 0.6069 -0.6069 0.5131
vt 0.375000 0.000000
vt 0.625000 0.000000
vt 0.625000 0.250000
vt 0.375000 0.250000
vt 0.625000 0.500000
vt 0.375000 0.500000
vt 0.625000 0.750000
vt 0.375000 0.750000
vt 0.625000 1.000000
vt 0.375000 1.000000
vt 0.125000 0.500000
vt 0.125000 0.750000
vt 0.875000 0.500000
vt 0.875000 0.750000
s 1
usemtl Material.006
f 25/43/23 26/44/24 28/45/25 27/46/26
f 27/46/26 28/45/25 32/47/27 31/48/28
f 31/48/28 32/47/27 30/49/29 29/50/30
f 29/50/30 30/49/29 26/51/24 25/52/23
f 27/53/26 31/48/28 29/50/30 25/54/23
f 32/47/27 28/55/25 26/56/24 30/49/29
o body
v 0.000157 -0.587785 -0.809017
v -0.308868 -0.559100 -0.769421
v -0.587658 -0.475685 -0.654509
v -0.808925 -0.345708 -0.475528
v -0.951008 -0.181890 -0.250000
v 0.000254 -0.951056 -0.309017
v -0.308775 -0.904591 -0.293893
v -0.587579 -0.769578 -0.250000
v -0.808868 -0.559233 -0.181636
v -0.950978 -0.294147 -0.095492
v 0.000254 -0.951057 0.309017
v -0.308775 -0.904591 0.293893
v -0.587579 -0.769578 0.250000
v -0.808868 -0.559233 0.181636
v -0.950978 -0.294147 0.095491
v 0.000157 -0.587785 0.809017
v -0.308868 -0.559100 0.769421
v -0.587658 -0.475685 0.654508
v -0.808925 -0.345708 0.475528
v -0.951008 -0.181890 0.250000
v 0.000000 0.000000 1.000000
v -0.309017 -0.000083 0.951057
v -0.587785 -0.000157 0.809017
v -0.809017 -0.000216 0.587785
v -0.951056 -0.000254 0.309017
v -0.000157 0.587785 0.809017
v -0.309166 0.558934 0.769421
v -0.587912 0.475371 0.654509
v -0.809109 0.345275 0.475528
v -0.951105 0.181381 0.250000
v -0.000254 0.951057 0.309017
v -0.309259 0.904426 0.293893
v -0.587991 0.769264 0.250000
v -0.809166 0.558801 0.181636
v -0.951135 0.293638 0.095492
v -1.000000 -0.000267 0.000000
v -0.000254 0.951057 -0.309017
v -0.309259 0.904426 -0.293893
v -0.587991 0.769264 -0.250000
v -0.809166 0.558801 -0.181636
v -0.951135 0.293638 -0.095491
v -0.000157 0.587785 -0.809017
v -0.309166 0.558934 -0.769421
v -0.587912 0.475371 -0.654508
v -0.809109 0.345275 -0.475528
v -0.951105 0.181381 -0.250000
v 0.000000 -0.000000 -1.000000
v -0.309017 -0.000082 -0.951056
v -0.587785 -0.000157 -0.809017
v -0.809017 -0.000216 -0.587785
v -0.951056 -0.000254 -0.309017
v 2.292620 -0.180901 -0.250000
v 2.254676 -0.344795 -0.475528
v 2.129066 -0.474891 -0.654509
v 1.821459 -0.558454 -0.769421
v 1.691827 -0.587305 -0.809017
v 2.292649 -0.293158 -0.095491
v 2.254734 -0.558321 -0.181636
v 2.129143 -0.768784 -0.250000
v 1.821550 -0.903946 -0.293893
v 1.691924 -0.950576 -0.309017
v 2.292649 -0.293158 0.095492
v 2.254734 -0.558321 0.181636
v 2.129143 -0.768784 0.250000
v 1.821550 -0.903946 0.293893
v 1.691924 -0.950576 0.309017
v 2.292619 -0.180901 0.250000
v 2.254676 -0.344795 0.475528
v 2.129066 -0.474891 0.654508
v 1.821459 -0.558454 0.769421
v 1.553401 -0.587305 0.809017
v 2.292571 0.000734 0.309017
v 2.254583 0.000696 0.587785
v 2.128938 0.000637 0.809017
v 1.821308 0.000563 0.951057
v 1.553243 0.000480 1.000000
v 2.341514 0.000747 -0.000000
v 2.292522 0.182370 0.250000
v 2.254492 0.346188 0.475528
v 2.128812 0.476165 0.654509
v 1.821159 0.559580 0.769421
v 1.553086 0.588265 0.809017
v 2.292492 0.294627 0.095492
v 2.254434 0.559713 0.181636
v 2.128732 0.770058 0.250000
v 1.821068 0.905071 0.293893
v 1.552989 0.951537 0.309017
v 2.292492 0.294627 -0.095491
v 2.254434 0.559713 -0.181635
v 2.128732 0.770058 -0.250000
v 1.821068 0.905071 -0.293892
v 1.552989 0.951537 -0.309017
v 2.292523 0.182370 -0.250000
v 2.254492 0.346188 -0.475528
v 2.128812 0.476166 -0.654508
v 1.821159 0.559580 -0.769421
v 1.553086 0.588265 -0.809017
v 2.292571 0.000734 -0.309017
v 2.254583 0.000696 -0.587785
v 2.128938 0.000637 -0.809017
v 1.821308 0.000563 -0.951056
v 1.553243 0.000480 -1.000000
v 0.536956 -0.587454 -0.809017
v 0.537053 -0.950725 -0.309017
v 0.537053 -0.950725 0.309017
v 0.536956 -0.587454 0.809017
v 0.536799 0.000332 1.000000
v 0.536642 0.588117 0.809017
v 0.536545 0.951388 0.309017
v 0.536545 0.951388 -0.309017
v 0.536642 0.588117 -0.809017
v 0.536799 0.000332 -1.000000
v 1.990049 0.000600 -0.881009
v 1.990049 0.000600 0.881009
v 1.989911 0.518445 -0.712751
v 1.990273 -0.837289 -0.272247
v 1.990273 -0.837289 0.272247
v 1.989911 0.518444 0.712751
v 1.990188 -0.517244 0.712751
v 1.989825 0.838489 -0.272246
v 1.989825 0.838489 0.272247
v 1.990188 -0.517244 -0.712751
v 2.198367 -0.409843 -0.565018
v 2.198148 0.411177 0.565018
v 2.198257 0.000666 -0.698401
v 2.198367 -0.409843 0.565018
v 2.198080 0.664886 -0.215818
v 2.198148 0.411177 -0.565018
v 2.198080 0.664886 0.215818
v 2.198257 0.000667 0.698401
v 2.198435 -0.663553 -0.215818
v 2.198435 -0.663553 0.215818
vn -0.7944 -0.0002 -0.6074
vn -0.5735 -0.0002 -0.8192
vn -0.5734 -0.4817 -0.6627
vn -0.7943 -0.3572 -0.4914
vn -0.9416 -0.0003 -0.3367
vn -0.9416 -0.1982 -0.2724
vn -0.3003 -0.0001 -0.9538
vn -0.0773 -0.0000 -0.9970
vn -0.0771 -0.5860 -0.8066
vn -0.3002 -0.5607 -0.7717
vn -1.0000 -0.0003 -0.0000
vn -0.5733 -0.7793 -0.2531
vn -0.7942 -0.5779 -0.1877
vn -0.9415 -0.3205 -0.1041
vn -0.0770 -0.9482 -0.3081
vn -0.3001 -0.9072 -0.2948
vn -0.5733 -0.7793 0.2531
vn -0.7942 -0.5779 0.1877
vn -0.9415 -0.3205 0.1041
vn -0.0770 -0.9482 0.3081
vn -0.3001 -0.9072 0.2948
vn -0.9416 -0.1982 0.2724
vn -0.3002 -0.5607 0.7717
vn -0.5734 -0.4817 0.6627
vn -0.7943 -0.3572 0.4914
vn -0.0771 -0.5860 0.8066
vn -0.0773 -0.0000 0.9970
vn -0.3003 -0.0001 0.9538
vn -0.9416 -0.0003 0.3367
vn -0.5735 -0.0002 0.8192
vn -0.7944 -0.0002 0.6074
vn -0.7945 0.3568 0.4914
vn -0.9417 0.1977 0.2724
vn -0.0774 0.5860 0.8066
vn -0.3005 0.5606 0.7717
vn -0.5736 0.4814 0.6627
vn -0.7945 0.5775 0.1877
vn -0.9417 0.3200 0.1041
vn -0.0776 0.9482 0.3081
vn -0.3006 0.9071 0.2948
vn -0.5737 0.7790 0.2531
vn -0.5737 0.7790 -0.2531
vn -0.7945 0.5775 -0.1877
vn -0.9417 0.3200 -0.1041
vn -0.0776 0.9482 -0.3081
vn -0.3006 0.9071 -0.2948
vn -0.3005 0.5606 -0.7717
vn -0.5736 0.4814 -0.6627
vn 0.0003 -0.9583 0.2856
vn 0.0002 -0.6049 0.7963
vn -0.0774 0.5860 -0.8066
vn -0.0002 0.5878 -0.8090
vn -0.0000 -0.0213 -0.9998
vn -0.7945 0.3568 -0.4914
vn 0.0002 -0.6074 -0.7944
vn 0.0003 -0.9511 -0.3090
vn -0.0000 -0.0000 1.0000
vn -0.0002 0.5878 0.8090
vn -0.9417 0.1977 -0.2724
vn -0.0003 0.9511 0.3090
vn -0.0003 0.9511 -0.3090
vn 0.9896 0.0003 -0.1436
vn 1.0000 0.0003 -0.0000
vn 0.9897 -0.0841 -0.1162
vn 0.2062 0.0384 -0.9778
vn 0.2923 0.0080 -0.9563
vn 0.3383 -0.5451 -0.7671
vn 0.2943 -0.5290 -0.7959
vn 0.9446 0.0003 -0.3283
vn 0.9446 -0.1927 -0.2656
vn 0.8663 0.0002 -0.4995
vn 0.8664 -0.2934 -0.4041
vn 0.4190 0.0001 -0.9080
vn 0.6527 0.0002 -0.7576
vn 0.6529 -0.4451 -0.6129
vn 0.4191 -0.5336 -0.7346
vn 0.9897 -0.1363 -0.0444
vn 0.3676 -0.8844 -0.2874
vn 0.3537 -0.8896 -0.2890
vn 0.9447 -0.3120 -0.1015
vn 0.8665 -0.4748 -0.1543
vn 0.6529 -0.7203 -0.2341
vn 0.4192 -0.8634 -0.2806
vn 0.6529 -0.7203 0.2341
vn 0.4192 -0.8634 0.2806
vn 0.9897 -0.1363 0.0444
vn 0.3384 -0.8918 0.3001
vn 0.2944 -0.8958 0.3330
vn 0.9447 -0.3120 0.1015
vn 0.8665 -0.4748 0.1543
vn 0.6529 -0.4451 0.6129
vn 0.4191 -0.5336 0.7346
vn 0.9897 -0.0841 0.1162
vn 0.2925 -0.5556 0.7783
vn 0.2064 -0.5436 0.8135
vn 0.9446 -0.1927 0.2656
vn 0.8664 -0.2934 0.4041
vn 0.9446 0.0003 0.3283
vn 0.8663 0.0002 0.4995
vn 0.6527 0.0002 0.7576
vn 0.4190 0.0001 0.9080
vn 0.9896 0.0003 0.1436
vn 0.2776 0.0001 0.9607
vn 0.1796 -0.0000 0.9837
vn 0.9896 0.0847 0.1162
vn 0.9445 0.1933 0.2656
vn 0.8662 0.2939 0.4041
vn 0.6526 0.4455 0.6129
vn 0.4189 0.5338 0.7346
vn 0.2774 0.5648 0.7772
vn 0.1794 0.5783 0.7959
vn 0.2773 0.9138 0.2969
vn 0.1793 0.9356 0.3040
vn 0.9896 0.1369 0.0444
vn 0.9445 0.3126 0.1015
vn 0.8662 0.4753 0.1544
vn 0.6525 0.7207 0.2341
vn 0.4188 0.8636 0.2806
vn 0.9896 0.1369 -0.0444
vn 0.2773 0.9138 -0.2969
vn 0.1793 0.9356 -0.3040
vn 0.9445 0.3126 -0.1015
vn 0.8662 0.4753 -0.1544
vn 0.6525 0.7207 -0.2341
vn 0.4188 0.8636 -0.2806
vn 0.6526 0.4455 -0.6129
vn 0.4189 0.5338 -0.7346
vn 0.9896 0.0847 -0.1162
vn 0.2774 0.5648 -0.7772
vn 0.1794 0.5783 -0.7959
vn 0.9445 0.1933 -0.2656
vn 0.8662 0.2939 -0.4041
vn -0.0001 0.9511 0.3090
vn -0.0001 0.9511 -0.3090
vn -0.0001 0.5878 0.8090
vn 0.0001 -0.9511 -0.3090
vn 0.0001 -0.9583 0.2856
vn 0.0001 -0.9511 0.3090
vn -0.0001 0.5878 -0.8090
vn -0.0000 -0.0000 -1.0000
vn 0.0001 -0.6074 -0.7944
vn 0.0001 -0.5878 -0.8090
vn 0.0001 -0.6049 0.7963
vn 0.0001 -0.5878 0.8090
vt 0.700000 0.200000
vt 0.700000 0.300000
vt 0.600000 0.300000
vt 0.600000 0.200000
vt 0.700000 0.100000
vt 0.600000 0.100000
vt 0.700000 0.400000
vt 0.700000 0.500000
vt 0.600000 0.500000
vt 0.600000 0.400000
vt 0.650000 0.000000
vt 0.500000 0.300000
vt 0.500000 0.200000
vt 0.500000 0.100000
vt 0.500000 0.500000
vt 0.500000 0.400000
vt 0.550000 0.000000
vt 0.400000 0.300000
vt 0.400000 0.200000
vt 0.400000 0.100000
vt 0.400000 0.500000
vt 0.400000 0.400000
vt 0.450000 0.000000
vt 0.350000 0.000000
vt 0.300000 0.100000
vt 0.300000 0.400000
vt 0.300000 0.300000
vt 0.300000 0.200000
vt 0.300000 0.500000
vt 0.200000 0.500000
vt 0.200000 0.400000
vt 0.250000 0.000000
vt 0.200000 0.100000
vt 0.200000 0.300000
vt 0.200000 0.200000
vt 0.100000 0.200000
vt 0.100000 0.100000
vt 0.100000 0.500000
vt 0.100000 0.400000
vt 0.150000 0.000000
vt 0.100000 0.300000
vt 0.000000 0.200000
vt 0.000000 0.100000
vt 0.000000 0.500000
vt 0.000000 0.400000
vt 0.050000 0.000000
vt 0.000000 0.300000
vt 1.000000 0.200000
vt 1.000000 0.300000
vt 0.900000 0.300000
vt 0.900000 0.200000
vt 1.000000 0.100000
vt 0.900000 0.100000
vt 1.000000 0.400000
vt 1.000000 0.500000
vt 0.900000 0.500000
vt 0.900000 0.400000
vt 0.950000 0.000000
vt 0.800000 0.400000
vt 0.800000 0.300000
vt 0.800000 0.500000
vt 0.800000 0.200000
vt 0.800000 0.100000
vt 0.850000 0.000000
vt 0.750000 0.000000
vt 0.700000 0.900000
vt 0.650000 1.000000
vt 0.600000 0.900000
vt 0.700000 0.600000
vt 0.600000 0.600000
vt 0.700000 0.800000
vt 0.600000 0.800000
vt 0.700000 0.750000
vt 0.600000 0.750000
vt 0.700000 0.650000
vt 0.700000 0.700000
vt 0.600000 0.700000
vt 0.600000 0.650000
vt 0.550000 1.000000
vt 0.500000 0.900000
vt 0.500000 0.600000
vt 0.500000 0.800000
vt 0.500000 0.750000
vt 0.500000 0.700000
vt 0.500000 0.650000
vt 0.400000 0.700000
vt 0.400000 0.650000
vt 0.450000 1.000000
vt 0.400000 0.900000
vt 0.400000 0.600000
vt 0.400000 0.800000
vt 0.400000 0.750000
vt 0.300000 0.700000
vt 0.300000 0.650000
vt 0.350000 1.000000
vt 0.300000 0.900000
vt 0.300000 0.600000
vt 0.300000 0.800000
vt 0.300000 0.750000
vt 0.200000 0.800000
vt 0.200000 0.750000
vt 0.200000 0.700000
vt 0.200000 0.650000
vt 0.250000 1.000000
vt 0.200000 0.900000
vt 0.200000 0.600000
vt 0.100000 0.900000
vt 0.100000 0.800000
vt 0.100000 0.750000
vt 0.100000 0.700000
vt 0.100000 0.650000
vt 0.150000 1.000000
vt 0.100000 0.600000
vt 0.000000 0.600000
vt 0.000000 0.900000
vt 0.000000 0.800000
vt 0.000000 0.750000
vt 0.000000 0.700000
vt 0.000000 0.650000
vt 0.050000 1.000000
vt 1.000000 0.900000
vt 0.950000 1.000000
vt 0.900000 0.900000
vt 1.000000 0.600000
vt 0.900000 0.600000
vt 1.000000 0.800000
vt 0.900000 0.800000
vt 1.000000 0.750000
vt 0.900000 0.750000
vt 1.000000 0.650000
vt 1.000000 0.700000
vt 0.900000 0.700000
vt 0.900000 0.650000
vt 0.800000 0.700000
vt 0.800000 0.650000
vt 0.850000 1.000000
vt 0.800000 0.900000
vt 0.800000 0.600000
vt 0.800000 0.800000
vt 0.800000 0.750000
vt 0.750000 1.000000
s 1
usemtl metallo
f 82/57/31 81/58/32 35/59/33 36/60/34
f 83/61/35 82/57/31 36/60/34 37/62/36
f 80/63/37 79/64/38 33/65/39 34/66/40
f 68/67/41 83/61/35 37/62/36
f 81/58/32 80/63/37 34/66/40 35/59/33
f 36/60/34 35/59/33 40/68/42 41/69/43
f 37/62/36 36/60/34 41/69/43 42/70/44
f 34/66/40 33/65/39 38/71/45 39/72/46
f 68/73/41 37/62/36 42/70/44
f 35/59/33 34/66/40 39/72/46 40/68/42
f 41/69/43 40/68/42 45/74/47 46/75/48
f 42/70/44 41/69/43 46/75/48 47/76/49
f 39/72/46 38/71/45 43/77/50 44/78/51
f 68/79/41 42/70/44 47/76/49
f 40/68/42 39/72/46 44/78/51 45/74/47
f 68/80/41 47/76/49 52/81/52
f 45/74/47 44/78/51 49/82/53 50/83/54
f 46/75/48 45/74/47 50/83/54 51/84/55
f 47/76/49 46/75/48 51/84/55 52/81/52
f 44/78/51 43/77/50 48/85/56 49/82/53
f 49/82/53 48/85/56 53/86/57 54/87/58
f 68/88/41 52/81/52 57/89/59
f 50/83/54 49/82/53 54/87/58 55/90/60
f 51/84/55 50/83/54 55/90/60 56/91/61
f 52/81/52 51/84/55 56/91/61 57/89/59
f 57/89/59 56/91/61 61/92/62 62/93/63
f 54/87/58 53/86/57 58/94/64 59/95/65
f 68/96/41 57/89/59 62/93/63
f 55/90/60 54/87/58 59/95/65 60/97/66
f 56/91/61 55/90/60 60/97/66 61/92/62
f 62/93/63 61/92/62 66/98/67 67/99/68
f 59/95/65 58/94/64 63/100/69 64/101/70
f 68/102/41 62/93/63 67/99/68
f 60/97/66 59/95/65 64/101/70 65/103/71
f 61/92/62 60/97/66 65/103/71 66/98/67
f 66/104/67 65/105/71 71/106/72 72/107/73
f 67/108/68 66/104/67 72/107/73 73/109/74
f 64/110/70 63/111/69 69/112/75 70/113/76
f 68/114/41 67/108/68 73/109/74
f 65/105/71 64/110/70 70/113/76 71/106/72
f 71/106/72 70/113/76 75/115/77 76/116/78
f 48/85/56 43/77/50 98/77/79 103/85/80
f 79/64/38 74/117/81 129/117/82 134/64/83
f 72/107/73 71/106/72 76/116/78 77/118/84
f 38/71/45 33/65/39 88/65/85 93/71/86
f 58/94/64 53/86/57 108/86/87 114/94/88
f 73/109/74 72/107/73 77/118/84 78/119/89
f 70/113/76 69/112/75 74/117/81 75/115/77
f 63/100/69 58/94/64 114/94/88 119/100/90
f 68/120/41 73/109/74 78/119/89
f 69/112/75 63/111/69 119/111/90 124/112/91
f 68/121/41 78/119/89 83/61/35
f 76/116/78 75/115/77 80/63/37 81/58/32
f 43/77/50 38/71/45 93/71/86 98/77/79
f 74/117/81 69/112/75 124/112/91 129/117/82
f 77/118/84 76/116/78 81/58/32 82/57/31
f 53/86/57 48/85/56 103/85/80 108/86/87
f 33/65/39 79/64/38 134/64/83 88/65/85
f 78/119/89 77/118/84 82/57/31 83/61/35
f 75/115/77 74/117/81 79/64/38 80/63/37
f 130/122/92 109/123/93 84/124/94
f 134/64/95 133/125/96 87/126/97 88/65/98
f 131/127/99 130/122/92 84/124/94 85/128/100
f 157/129/101 131/127/99 85/128/100 155/130/102
f 145/131/103 132/132/104 86/133/105 154/134/106
f 84/124/94 109/135/93 89/136/107
f 88/65/98 87/126/97 92/137/108 93/71/109
f 85/128/100 84/124/94 89/136/107 90/138/110
f 155/130/102 85/128/100 90/138/110 163/139/111
f 154/134/106 86/133/105 91/140/112 148/141/113
f 148/141/113 91/140/112 96/142/114 149/143/115
f 89/136/107 109/144/93 94/145/116
f 93/71/109 92/137/108 97/146/117 98/77/118
f 90/138/110 89/136/107 94/145/116 95/147/119
f 163/139/111 90/138/110 95/147/119 164/148/120
f 149/143/115 96/142/114 101/149/121 151/150/122
f 94/145/116 109/151/93 99/152/123
f 98/77/118 97/146/117 102/153/124 103/85/125
f 95/147/119 94/145/116 99/152/123 100/154/126
f 164/148/120 95/147/119 100/154/126 158/155/127
f 158/155/127 100/154/126 105/156/128 162/157/129
f 151/150/122 101/149/121 106/158/130 146/159/131
f 99/152/123 109/160/93 104/161/132
f 103/85/125 102/153/124 107/162/133 108/86/134
f 100/154/126 99/152/123 104/161/132 105/156/128
f 105/156/128 104/161/132 110/163/135 111/164/136
f 162/157/129 105/156/128 111/164/136 156/165/137
f 146/159/131 106/158/130 112/166/138 150/167/139
f 104/161/132 109/168/93 110/163/135
f 108/86/134 107/162/133 113/169/140 114/94/141
f 114/94/141 113/169/140 118/170/142 119/100/143
f 111/164/136 110/163/135 115/171/144 116/172/145
f 156/165/137 111/164/136 116/172/145 161/173/146
f 150/167/139 112/166/138 117/174/147 153/175/148
f 110/163/135 109/176/93 115/171/144
f 115/177/144 109/178/93 120/179/149
f 119/111/143 118/180/142 123/181/150 124/112/151
f 116/182/145 115/177/144 120/179/149 121/183/152
f 161/184/146 116/182/145 121/183/152 159/185/153
f 153/186/148 117/187/147 122/188/154 152/189/155
f 152/189/155 122/188/154 127/190/156 147/191/157
f 120/179/149 109/192/93 125/193/158
f 124/112/151 123/181/150 128/194/159 129/117/160
f 121/183/152 120/179/149 125/193/158 126/195/161
f 159/185/153 121/183/152 126/195/161 160/196/162
f 160/196/162 126/195/161 131/127/99 157/129/101
f 147/191/157 127/190/156 132/132/104 145/131/103
f 125/193/158 109/197/93 130/122/92
f 129/117/160 128/194/159 133/125/96 134/64/95
f 126/195/161 125/193/158 130/122/92 131/127/99
f 119/111/163 124/112/164 142/112/164 141/111/163
f 108/86/87 114/94/165 140/94/165 139/86/87
f 93/71/166 98/77/167 137/77/168 136/71/166
f 114/94/165 119/100/163 141/100/163 140/94/165
f 129/117/169 134/64/83 144/64/170 143/117/169
f 124/112/164 129/117/169 143/117/169 142/112/164
f 134/64/83 88/65/171 135/65/172 144/64/170
f 103/85/173 108/86/87 139/86/87 138/85/174
f 98/77/167 103/85/173 138/85/174 137/77/168
f 88/65/171 93/71/166 136/71/166 135/65/172
f 128/194/159 147/191/157 145/131/103 133/125/96
f 123/181/150 152/189/155 147/191/157 128/194/159
f 118/180/142 153/186/148 152/189/155 123/181/150
f 113/169/140 150/167/139 153/175/148 118/170/142
f 107/162/133 146/159/131 150/167/139 113/169/140
f 102/153/124 151/150/122 146/159/131 107/162/133
f 97/146/117 149/143/115 151/150/122 102/153/124
f 92/137/108 148/141/113 149/143/115 97/146/117
f 87/126/97 154/134/106 148/141/113 92/137/108
f 133/125/96 145/131/103 154/134/106 87/126/97
f 127/190/156 160/196/162 157/129/101 132/132/104
f 122/188/154 159/185/153 160/196/162 127/190/156
f 117/187/147 161/184/146 159/185/153 122/188/154
f 112/166/138 156/165/137 161/173/146 117/174/147
f 106/158/130 162/157/129 156/165/137 112/166/138
f 101/149/121 158/155/127 162/157/129 106/158/130
f 96/142/114 164/148/120 158/155/127 101/149/121
f 91/140/112 163/139/111 164/148/120 96/142/114
f 86/133/105 155/130/102 163/139/111 91/140/112
f 132/132/104 157/129/101 155/130/102 86/133/105
o pinnaSx.001
v 0.965976 1.344846 0.060058
v 0.965976 1.346304 -0.053037
v 0.965976 0.929021 0.054699
v 0.965976 0.930478 -0.058395
v 1.465976 1.344846 0.060058
v 1.465976 1.346304 -0.053037
v 1.465976 0.929021 0.054699
v 1.465976 0.930478 -0.058395
vn -0.5774 0.5699 0.5847
vn -0.5774 0.5847 -0.5699
vn -0.5774 -0.5699 -0.5847
vn -0.5774 -0.5847 0.5699
vn 0.5774 -0.5699 -0.5847
vn 0.5774 -0.5847 0.5699
vn 0.5774 0.5847 -0.5699
vn 0.5774 0.5699 0.5847
vt 0.375000 0.000000
vt 0.625000 0.000000
vt 0.625000 0.250000
vt 0.375000 0.250000
vt 0.625000 0.500000
vt 0.375000 0.500000
vt 0.625000 0.750000
vt 0.375000 0.750000
vt 0.625000 1.000000
vt 0.375000 1.000000
vt 0.125000 0.500000
vt 0.125000 0.750000
vt 0.875000 0.500000
vt 0.875000 0.750000
s 1
usemtl Material.006
f 165/198/175 166/199/176 168/200/177 167/201/178
f 167/201/178 168/200/177 172/202/179 171/203/180
f 171/203/180 172/202/179 170/204/181 169/205/182
f 169/205/182 170/204/181 166/206/176 165/207/175
f 167/208/178 171/203/180 169/205/182 165/209/175
f 172/202/179 168/210/177 166/211/176 170/204/181
